<svg xmlns="http://www.w3.org/2000/svg" viewBox="0 0 800 600" role="img" aria-label="Illustration Familienbetrieb Cleanmaster 1974">
  <defs>
    <linearGradient id="bg" x1="0" y1="0" x2="0" y2="1">
      <stop offset="0" stop-color="#eef8fd"/>
      <stop offset="1" stop-color="#d8eefb"/>
    </linearGradient>
  </defs>
  <rect width="800" height="600" fill="url(#bg)"/>
  <circle cx="400" cy="300" r="230" fill="#ffffff" opacity="0.55"/>

  <path d="M0 500 h800 v100 H0 z" fill="#dcf0fb"/>

  <!-- Firmengebäude -->
  <g>
    <rect x="230" y="200" width="340" height="300" rx="12" fill="#223a58"/>
    <rect x="230" y="200" width="340" height="26" rx="12" fill="#16243d"/>
    <g fill="#45b3e7">
      <rect x="264" y="256" width="80" height="70" rx="7"/>
      <rect x="456" y="256" width="80" height="70" rx="7"/>
      <rect x="264" y="356" width="80" height="70" rx="7"/>
      <rect x="456" y="356" width="80" height="70" rx="7"/>
    </g>
    <rect x="362" y="380" width="76" height="120" rx="9" fill="#219cd8"/>
    <rect x="374" y="392" width="52" height="108" rx="5" fill="#d8eefb"/>
    <!-- Markise -->
    <g>
      <path d="M340 350 h 120 l 14 26 h -148 z" fill="#219cd8"/>
      <path d="M340 350 h 24 l -7 26 h -31 z M388 350 h 24 l 0 26 h -26 z M436 350 h 24 l 14 26 h -31 z" fill="#ffffff" opacity="0.85"/>
    </g>
  </g>

  <!-- 1974-Wimpel -->
  <g transform="translate(570 160)">
    <circle r="66" fill="#219cd8"/>
    <circle r="66" fill="none" stroke="#ffffff" stroke-width="5" stroke-dasharray="4 10" stroke-linecap="round"/>
    <text x="0" y="4" text-anchor="middle" font-family="Arial, sans-serif" font-weight="bold" font-size="30" fill="#ffffff">1974</text>
    <text x="0" y="28" text-anchor="middle" font-family="Arial, sans-serif" font-size="13" fill="#d8eefb">Familienbetrieb</text>
  </g>

  <!-- Herz + Funkeln -->
  <g transform="translate(180 150)">
    <path d="M0 26 C -26 2 -18 -30 4 -26 C 14 -24 18 -16 20 -10 C 22 -16 26 -24 36 -26 C 58 -30 66 2 40 26 L 20 44 Z" fill="#45b3e7" transform="translate(-20 0)"/>
  </g>
  <g fill="#219cd8">
    <path d="M120 300c2.6 12 7.8 17.2 20 20-12.2 2.6-17.4 7.8-20 20-2.6-12.2-7.8-17.4-20-20 12.2-2.8 17.4-8 20-20z" opacity="0.8"/>
    <path d="M680 320c1.8 8.4 5.5 12 14 14-8.5 1.8-12.2 5.5-14 14-1.8-8.5-5.5-12.2-14-14 8.5-2 12.2-5.6 14-14z" opacity="0.7"/>
  </g>
</svg>
