<svg xmlns="http://www.w3.org/2000/svg" viewBox="0 0 40 40">
  <defs>
    <linearGradient id="g" x1="0" y1="0" x2="1" y2="1">
      <stop offset="0" stop-color="#45b3e7"/>
      <stop offset="1" stop-color="#167eb4"/>
    </linearGradient>
  </defs>
  <rect x="1" y="1" width="38" height="38" rx="11" fill="url(#g)"/>
  <path d="M20 8.5c1 6 4 9 9.5 10-5.5 1-8.5 4-9.5 10-1-6-4-9-9.5-10 5.5-1 8.5-4 9.5-10Z" fill="#ffffff"/>
  <path d="M29 25.5c.4 2.4 1.6 3.6 4 4-2.4.4-3.6 1.6-4 4-.4-2.4-1.6-3.6-4-4 2.4-.4 3.6-1.6 4-4Z" fill="#d8eefb"/>
</svg>
