<svg xmlns="http://www.w3.org/2000/svg" viewBox="0 0 800 600" role="img" aria-label="Illustration Gebäudereinigung und Unterhaltsreinigung">
  <defs>
    <linearGradient id="bg" x1="0" y1="0" x2="0" y2="1">
      <stop offset="0" stop-color="#eef8fd"/>
      <stop offset="1" stop-color="#d8eefb"/>
    </linearGradient>
    <linearGradient id="win" x1="0" y1="0" x2="1" y2="1">
      <stop offset="0" stop-color="#45b3e7"/>
      <stop offset="1" stop-color="#219cd8"/>
    </linearGradient>
  </defs>
  <rect width="800" height="600" fill="url(#bg)"/>
  <circle cx="400" cy="300" r="230" fill="#ffffff" opacity="0.55"/>

  <path d="M0 500 h800 v100 H0 z" fill="#dcf0fb"/>

  <!-- Nebengebäude -->
  <rect x="120" y="240" width="150" height="260" rx="10" fill="#b5e0f7"/>
  <g fill="#eaf6fd">
    <rect x="140" y="264" width="34" height="40" rx="5"/>
    <rect x="196" y="264" width="34" height="40" rx="5"/>
    <rect x="140" y="324" width="34" height="40" rx="5"/>
    <rect x="196" y="324" width="34" height="40" rx="5"/>
    <rect x="140" y="384" width="34" height="40" rx="5"/>
    <rect x="196" y="384" width="34" height="40" rx="5"/>
  </g>

  <!-- Hauptgebäude -->
  <rect x="320" y="120" width="260" height="380" rx="14" fill="#16243d"/>
  <rect x="334" y="134" width="232" height="352" rx="10" fill="#223a58"/>
  <g fill="url(#win)">
    <rect x="352" y="152" width="60" height="64" rx="7"/>
    <rect x="426" y="152" width="60" height="64" rx="7"/>
    <rect x="500" y="152" width="48" height="64" rx="7"/>
    <rect x="352" y="232" width="60" height="64" rx="7"/>
    <rect x="426" y="232" width="60" height="64" rx="7"/>
    <rect x="500" y="232" width="48" height="64" rx="7"/>
    <rect x="352" y="312" width="60" height="64" rx="7"/>
    <rect x="426" y="312" width="60" height="64" rx="7"/>
    <rect x="500" y="312" width="48" height="64" rx="7"/>
  </g>
  <g stroke="#ffffff" stroke-width="6" stroke-linecap="round" opacity="0.7">
    <path d="M440 288 L 470 240"/>
    <path d="M366 208 L 396 162"/>
  </g>
  <rect x="416" y="408" width="68" height="78" rx="9" fill="#45b3e7"/>
  <rect x="428" y="420" width="44" height="66" rx="5" fill="#d8eefb"/>

  <!-- Wischmopp -->
  <g>
    <path d="M660 210 L 610 470" stroke="#16243d" stroke-width="10" stroke-linecap="round"/>
    <path d="M584 470 h 56 l 8 26 h -72 z" fill="#219cd8"/>
    <g stroke="#45b3e7" stroke-width="8" stroke-linecap="round">
      <path d="M586 500 v 22"/>
      <path d="M604 500 v 26"/>
      <path d="M622 500 v 22"/>
      <path d="M638 500 v 26"/>
    </g>
    <path d="M560 520 q 40 18 100 6" stroke="#ffffff" stroke-width="6" fill="none" stroke-linecap="round" opacity="0.9"/>
  </g>

  <!-- Funkeln -->
  <g fill="#219cd8">
    <path d="M180 140c2.6 12 7.8 17.2 20 20-12.2 2.6-17.4 7.8-20 20-2.6-12.2-7.8-17.4-20-20 12.2-2.8 17.4-8 20-20z"/>
    <path d="M680 120c1.8 8.4 5.5 12 14 14-8.5 1.8-12.2 5.5-14 14-1.8-8.5-5.5-12.2-14-14 8.5-2 12.2-5.6 14-14z" opacity="0.75"/>
  </g>
</svg>
